<?xml version="1.0" encoding="UTF-8"?><svg id="a" xmlns="http://www.w3.org/2000/svg" xmlns:xlink="http://www.w3.org/1999/xlink" viewBox="0 0 13.91 19.07"><defs><linearGradient id="b" x1="-273.06" y1="241.93" x2="-269.01" y2="246.49" gradientTransform="translate(-88.84 543.48) rotate(143.46) scale(1.45 1.52)" gradientUnits="userSpaceOnUse"><stop offset=".08" stop-color="#9945ff"/><stop offset=".3" stop-color="#8752f3"/><stop offset=".5" stop-color="#5497d5"/><stop offset=".6" stop-color="#43b4ca"/><stop offset=".72" stop-color="#28e0b9"/><stop offset=".97" stop-color="#19fb9b"/></linearGradient><linearGradient id="c" x1="-1007.11" y1="664.48" x2="-1002.46" y2="669.71" gradientTransform="translate(679.64 -992.76) rotate(-89.47) scale(1 -1)" xlink:href="#b"/><linearGradient id="d" x1="72.95" y1="-608.99" x2="79.36" y2="-601.77" gradientTransform="translate(616.56 87.71) rotate(-89.47)" xlink:href="#b"/><linearGradient id="e" x1="362.23" y1="17.62" x2="367.86" y2="23.96" gradientTransform="translate(-371.75 18.55) rotate(.53) scale(1 -1) skewX(34)" xlink:href="#b"/></defs><path d="m0,18.71l.35-3.97c0-.09.03-.17.07-.24.04-.07.1-.14.16-.19l10.07-7.46s.11-.06.17-.06c.06,0,.12.01.17.05.05.03.1.08.13.13.03.06.04.12.04.18l-.35,3.97c0,.09-.03.17-.07.24-.04.07-.1.14-.16.19L.5,19.01s-.11.06-.17.06c-.06,0-.12-.01-.17-.05-.05-.03-.1-.08-.13-.13-.03-.06-.04-.12-.04-.18H0Z" fill="url(#b)"/><path d="m4.6.3s.11-.05.17-.05c.06,0,.13,0,.19.02.06.02.11.04.15.08.04.03.05.08.05.12l-.08,8.63c0,.06-.02.11-.06.17-.04.05-.09.1-.16.14l-3.1,1.79s-.11.05-.17.05c-.06,0-.13,0-.19-.02-.06-.02-.11-.04-.15-.08-.04-.03-.05-.08-.05-.12l.08-8.63c0-.06.02-.12.06-.17.04-.05.09-.1.16-.14L4.6.3h0Z" fill="url(#c)"/><path d="m10.3,2.07c-.07.04-.12.09-.16.15-.04.06-.06.11-.06.18l-.08,9s.02.09.05.12c.03.04.08.06.14.08.06.02.12.02.19.02.06,0,.12-.03.17-.05l3.06-1.87c.07-.04.12-.09.16-.14s.06-.11.06-.17l.08-9s-.02-.09-.05-.12c-.03-.04-.08-.06-.14-.08-.06-.02-.12-.02-.19-.02-.06,0-.12.03-.17.05l-3.06,1.87Z" fill="url(#d)"/><path d="m1.39,2.42l8.67.08c.06,0,.12-.01.19-.03.07-.02.14-.06.21-.1l3.17-1.94s.09-.07.13-.11c.03-.04.06-.08.07-.12,0-.04,0-.07-.01-.09-.02-.02-.05-.04-.09-.04L5.06,0c-.06,0-.12.01-.19.03-.07.02-.14.06-.21.1l-3.17,1.94s-.09.07-.13.11c-.03.04-.06.08-.07.12,0,.04,0,.07.01.09.02.02.05.04.09.04h0Z" fill="url(#e)"/></svg>