<?xml version="1.0" encoding="UTF-8"?><svg xmlns="http://www.w3.org/2000/svg" xmlns:xlink="http://www.w3.org/1999/xlink" viewBox="0 0 439.2 496.32"><defs><filter id="a" filterUnits="userSpaceOnUse"><feOffset dx="7" dy="7"/><feGaussianBlur result="b" stdDeviation="5"/><feFlood flood-color="#000" flood-opacity=".75"/><feComposite in2="b" operator="in"/><feComposite in="SourceGraphic"/></filter><linearGradient id="g" x1="155.1" y1="247.84" x2="282.24" y2="247.84" gradientUnits="userSpaceOnUse"><stop offset=".08" stop-color="#9945ff"/><stop offset=".3" stop-color="#8752f3"/><stop offset=".5" stop-color="#5497d5"/><stop offset=".6" stop-color="#43b4ca"/><stop offset=".72" stop-color="#28e0b9"/><stop offset=".97" stop-color="#19fb9b"/></linearGradient></defs><g id="c" filter="url(#a)"><g id="d"><g id="e"><g id="f"><path d="m262.8,207.73c-8.35-3.82-17.17-6.54-26.23-8.07-1.24,2.22-2.36,4.5-3.36,6.83-9.65-1.45-19.46-1.45-29.11,0-1-2.33-2.12-4.61-3.36-6.83-9.06,1.55-17.89,4.27-26.25,8.09-16.6,24.56-21.1,48.51-18.85,72.12h0c9.72,7.18,20.6,12.65,32.17,16.15,2.6-3.5,4.91-7.22,6.89-11.11-3.76-1.4-7.39-3.14-10.85-5.18.91-.66,1.8-1.34,2.66-2,20.37,9.58,43.95,9.58,64.32,0,.87.71,1.76,1.39,2.66,2-3.46,2.05-7.1,3.78-10.87,5.19,1.98,3.89,4.28,7.6,6.89,11.1,11.58-3.49,22.47-8.95,32.19-16.14h0c2.64-27.38-4.51-51.11-18.9-72.15Zm-65.25,57.62c-6.27,0-11.45-5.69-11.45-12.69s5-12.74,11.43-12.74,11.57,5.74,11.46,12.74-5.05,12.69-11.44,12.69Zm42.24,0c-6.28,0-11.44-5.69-11.44-12.69s5-12.74,11.44-12.74,11.54,5.74,11.43,12.74-5.04,12.69-11.43,12.69Z" fill="url(#g)"/></g></g></g></g></svg>