<?xml version="1.0" encoding="UTF-8"?><svg id="a" xmlns="http://www.w3.org/2000/svg" xmlns:xlink="http://www.w3.org/1999/xlink" viewBox="0 0 31.39 30.87"><defs><linearGradient id="f" x1="290.21" y1="-364.56" x2="321.18" y2="-364.56" gradientTransform="translate(-290 -349.13) scale(1 -1)" gradientUnits="userSpaceOnUse"><stop offset=".08" stop-color="#9945ff"/><stop offset=".3" stop-color="#8752f3"/><stop offset=".5" stop-color="#5497d5"/><stop offset=".6" stop-color="#43b4ca"/><stop offset=".72" stop-color="#28e0b9"/><stop offset=".97" stop-color="#19fb9b"/></linearGradient></defs><g id="b"><g id="c"><g id="d"><g id="e"><path d="m26.45,5.66c-2.03-.93-4.18-1.59-6.39-1.97-.3.54-.57,1.1-.82,1.66-2.35-.35-4.74-.35-7.09,0-.24-.57-.52-1.12-.82-1.66-2.21.38-4.36,1.04-6.4,1.97C.89,11.65-.21,17.49.34,23.24H.34c2.37,1.75,5.02,3.08,7.84,3.93.63-.85,1.2-1.76,1.68-2.71-.92-.34-1.8-.76-2.64-1.26.22-.16.44-.33.65-.49,4.96,2.33,10.71,2.33,15.67,0,.21.17.43.34.65.49-.84.5-1.73.92-2.65,1.26.48.95,1.04,1.85,1.68,2.7,2.82-.85,5.47-2.18,7.84-3.93h0c.64-6.67-1.1-12.45-4.6-17.58h0Zm-15.9,14.04c-1.53,0-2.79-1.39-2.79-3.09s1.22-3.1,2.78-3.1,2.82,1.4,2.79,3.1-1.23,3.09-2.79,3.09h0Zm10.29,0c-1.53,0-2.79-1.39-2.79-3.09s1.22-3.1,2.79-3.1,2.81,1.4,2.78,3.1-1.23,3.09-2.78,3.09h0Z" fill="url(#e)"/></g></g></g></g></svg>