<?xml version="1.0" encoding="UTF-8"?><svg xmlns="http://www.w3.org/2000/svg" xmlns:xlink="http://www.w3.org/1999/xlink" viewBox="0 0 1441 566"><defs><linearGradient id="c" x1="783.41" y1="705.57" x2="827.82" y2="755.55" gradientTransform="translate(1699.92 535.2) rotate(143.46) scale(1.45 1.52)" gradientUnits="userSpaceOnUse"><stop offset=".08" stop-color="#9945ff"/><stop offset=".3" stop-color="#8752f3"/><stop offset=".5" stop-color="#5497d5"/><stop offset=".6" stop-color="#43b4ca"/><stop offset=".72" stop-color="#28e0b9"/><stop offset=".97" stop-color="#19fb9b"/></linearGradient><linearGradient id="d" x1="-304.34" y1="1549.95" x2="-253.4" y2="1607.28" gradientTransform="translate(1659.79 -3.43) rotate(-89.47) scale(1 -1)" xlink:href="#c"/><linearGradient id="e" x1="766.33" y1="-923.2" x2="836.6" y2="-844.11" gradientTransform="translate(1050.2 1071.94) rotate(-89.47)" xlink:href="#c"/><linearGradient id="f" x1="413.03" y1="316.77" x2="474.74" y2="386.22" gradientTransform="translate(-558.57 556.7) rotate(.53) scale(1 -1) skewX(34)" xlink:href="#c"/><linearGradient id="i" x1="975.35" y1="296.63" x2="1379.24" y2="296.63" gradientTransform="matrix(1,0,0,1,0,0)" xlink:href="#c"/><linearGradient id="j" x1="975.35" y1="296.63" x2="1379.24" y2="296.63" gradientTransform="matrix(1,0,0,1,0,0)" xlink:href="#c"/><linearGradient id="k" x1="975.35" y1="296.63" x2="1379.24" y2="296.63" gradientTransform="matrix(1,0,0,1,0,0)" xlink:href="#c"/><linearGradient id="l" x1="975.35" y1="296.63" x2="1379.24" y2="296.63" gradientTransform="matrix(1,0,0,1,0,0)" xlink:href="#c"/><linearGradient id="m" x1="975.35" y1="296.63" x2="1379.24" y2="296.63" gradientTransform="matrix(1,0,0,1,0,0)" xlink:href="#c"/><linearGradient id="n" x1="975.35" y1="296.63" x2="1379.24" y2="296.63" gradientTransform="matrix(1,0,0,1,0,0)" xlink:href="#c"/><linearGradient id="o" x1="975.35" y1="296.63" x2="1379.24" y2="296.63" gradientTransform="matrix(1,0,0,1,0,0)" xlink:href="#c"/><linearGradient id="p" x1="975.35" y1="296.63" x2="1379.24" y2="296.63" gradientTransform="matrix(1,0,0,1,0,0)" xlink:href="#c"/><linearGradient id="q" x1="975.35" y1="296.63" x2="1379.24" y2="296.63" gradientTransform="matrix(1,0,0,1,0,0)" xlink:href="#c"/><linearGradient id="r" x1="975.35" y1="296.63" x2="1379.24" y2="296.63" gradientTransform="matrix(1,0,0,1,0,0)" xlink:href="#c"/><linearGradient id="s" x1="975.35" y1="296.63" x2="1379.24" y2="296.63" gradientTransform="matrix(1,0,0,1,0,0)" xlink:href="#c"/><linearGradient id="t" x1="975.35" y1="296.63" x2="1379.24" y2="296.63" gradientTransform="matrix(1,0,0,1,0,0)" xlink:href="#c"/><linearGradient id="u" x1="975.35" y1="296.63" x2="1379.24" y2="296.63" gradientTransform="matrix(1,0,0,1,0,0)" xlink:href="#c"/><linearGradient id="v" x1="975.35" y1="296.63" x2="1379.24" y2="296.63" gradientTransform="matrix(1,0,0,1,0,0)" xlink:href="#c"/><linearGradient id="w" x1="975.35" y1="296.63" x2="1379.24" y2="296.63" gradientTransform="matrix(1,0,0,1,0,0)" xlink:href="#c"/><linearGradient id="x" x1="975.35" y1="296.63" x2="1379.24" y2="296.63" gradientTransform="matrix(1,0,0,1,0,0)" xlink:href="#c"/><linearGradient id="y" x1="975.35" y1="296.63" x2="1379.24" y2="296.63" gradientTransform="matrix(1,0,0,1,0,0)" xlink:href="#c"/><linearGradient id="z" x1="975.35" y1="296.63" x2="1379.24" y2="296.63" gradientTransform="matrix(1,0,0,1,0,0)" xlink:href="#c"/><linearGradient id="aa" x1="975.35" y1="296.63" x2="1379.24" y2="296.63" gradientTransform="matrix(1,0,0,1,0,0)" xlink:href="#c"/></defs><g id="a"><rect x=".5" y=".5" width="1440" height="565" stroke="#000" stroke-miterlimit="10"/></g><g id="b"><path d="m43.41,402.6l3.86-43.5c.08-.95.36-1.85.81-2.67.45-.82,1.07-1.52,1.81-2.07l110.45-81.85c.53-.39,1.16-.61,1.83-.63.67-.02,1.33.15,1.92.5.59.35,1.07.86,1.38,1.48.31.61.45,1.29.39,1.97l-3.88,43.51c-.08.94-.36,1.85-.81,2.66-.45.81-1.06,1.52-1.8,2.07l-110.44,81.85c-.53.39-1.16.61-1.83.63-.67.02-1.33-.15-1.92-.5-.59-.35-1.07-.86-1.38-1.48-.31-.61-.45-1.29-.39-1.97h0Z" fill="url(#c)"/><path d="m93.81,200.67c.52-.3,1.18-.5,1.88-.57.7-.07,1.42,0,2.08.18.65.19,1.2.49,1.59.87.39.38.59.83.59,1.28l-.88,94.65c0,.63-.22,1.26-.63,1.84-.4.58-.99,1.1-1.73,1.52l-33.95,19.67c-.52.3-1.18.5-1.88.57-.7.07-1.42,0-2.08-.18-.65-.19-1.2-.49-1.59-.87-.39-.38-.59-.83-.59-1.28l.88-94.65c0-.64.22-1.26.62-1.84.41-.58.99-1.1,1.73-1.53l33.95-19.65h0Z" fill="url(#d)"/><path d="m156.38,220.06c-.73.45-1.31.99-1.71,1.59-.4.6-.61,1.26-.62,1.92l-.92,98.71c0,.47.2.93.58,1.33.38.4.93.71,1.57.91.64.19,1.36.26,2.05.18.69-.07,1.34-.28,1.86-.6l33.56-20.53c.73-.44,1.31-.99,1.71-1.59s.61-1.26.62-1.92l.92-98.71c0-.47-.2-.93-.58-1.33-.38-.4-.93-.71-1.57-.91-.64-.19-1.36-.26-2.05-.18-.69.07-1.34.28-1.86.6l-33.56,20.51Z" fill="url(#e)"/><path d="m58.7,223.97l95.1.89c.64,0,1.36-.12,2.12-.37.76-.25,1.54-.61,2.3-1.08l34.8-21.23c.54-.33,1.03-.74,1.41-1.18.38-.44.64-.9.75-1.32.1-.42.05-.77-.16-1.02-.21-.25-.56-.39-1.02-.39l-95.09-.89c-.64,0-1.36.12-2.12.37-.76.25-1.54.61-2.29,1.07l-34.81,21.23c-.54.33-1.03.74-1.41,1.18-.38.44-.64.9-.75,1.32-.1.42-.05.77.16,1.02.21.25.56.39,1.01.39h0Z" fill="url(#f)"/></g><g id="g"><text transform="translate(226.94 289.38)" fill="#fff" font-family="ABCGintoNord-Bold, &apos;ABC Ginto Nord&apos;" font-size="88.61" font-weight="700"><tspan x="0" y="0" letter-spacing="0em">M</tspan><tspan x="102.17" y="0">on</tspan><tspan x="247.67" y="0" letter-spacing="0em">o</tspan><tspan x="319.36" y="0">Fl</tspan><tspan x="417.27" y="0" letter-spacing="-.02em">o</tspan><tspan x="487.99" y="0" letter-spacing="-.02em">w</tspan><tspan x="586.97" y="0">s</tspan></text></g><g id="h"><text transform="translate(942.35 247.62)" fill="#fff" font-family="ABCGintoNormal-Regular, &apos;ABC Ginto Normal&apos;" font-size="41.13"><tspan x="0" y="0" letter-spacing="-.05em">V</tspan><tspan x="25.01" y="0">e</tspan><tspan x="47.5" y="0" letter-spacing="0em">r</tspan><tspan x="62.64" y="0">sioning </tspan><tspan x="208.6" y="0" letter-spacing="-.04em">&amp;</tspan><tspan x="238.67" y="0" xml:space="preserve"> Changelogs</tspan></text><text transform="translate(972.14 307.23)" fill="#fff" font-family="ABCGintoNormal-Regular, &apos;ABC Ginto Normal&apos;" font-size="41.18"><tspan x="0" y="0" letter-spacing="0em">M</tspan><tspan x="37.88" y="0">ulti-</tspan><tspan x="116.81" y="0" letter-spacing="0em">P</tspan><tspan x="141.23" y="0" letter-spacing="0em">ac</tspan><tspan x="183.56" y="0" letter-spacing="0em">k</tspan><tspan x="204.02" y="0">age </tspan><tspan x="283.41" y="0" letter-spacing="0em">M</tspan><tspan x="321.29" y="0">agic!</tspan></text><path d="m1007.3,307.23h-4.08l-1.65-25.44-8.19,25.44h-4.73l-8.03-25.61-1.44,25.61h-3.83l1.73-28.82h6.42l7.62,24.33,7.86-24.33h6.09l2.22,28.82Z" fill="url(#i)"/><path d="m1026.78,286.65h3.79v20.58h-3.79v-3.83c-1.19,2.88-3.42,4.36-6.42,4.36-4.57,0-7.41-2.84-7.41-7.99v-13.13h3.79v12.14c0,3.87,1.65,5.76,4.78,5.76,3.38,0,5.27-2.63,5.27-7.16v-10.75Z" fill="url(#j)"/><path d="m1037.03,307.23v-29.64h3.79v29.64h-3.79Z" fill="url(#k)"/><path d="m1059.18,286.65v3.21h-5.6v17.37h-3.79v-17.37h-5.02v-3.21h5.02v-5.15l3.79-1.23v6.38h5.6Z" fill="url(#l)"/><path d="m1062.44,280.39c0-1.36,1.11-2.39,2.51-2.39s2.47,1.03,2.47,2.39-1.07,2.47-2.47,2.47-2.51-1.11-2.51-2.47Zm.62,26.84v-20.58h3.79v20.58h-3.79Z" fill="url(#m)"/><path d="m1072.85,295.29v-3.71h13.38v3.71h-13.38Z" fill="url(#n)"/><path d="m1103.32,278.42c5.52,0,9.06,3.62,9.06,9.1s-3.62,9.26-10.04,9.26h-5.35v10.46h-3.99v-28.82h10.33Zm-1.4,14.9c4.24,0,6.3-2.14,6.3-5.8,0-3.46-2.06-5.48-5.72-5.48h-5.52v11.28h4.94Z" fill="url(#o)"/><path d="m1131.98,294.72v12.52h-3.75v-2.76c-1.03,2.1-3.09,3.38-5.85,3.38-4.16,0-7.16-2.92-7.16-6.79s3.05-6.71,7.49-6.71c2.63,0,4.53,1.11,5.52,2.59v-1.81c0-3.62-2.18-5.68-5.52-5.68-2.47,0-4.65.99-6.38,2.8v-3.87c1.73-1.32,3.95-2.35,6.92-2.35,5.39,0,8.73,3.21,8.73,8.69Zm-3.75,6.13c0-2.14-1.73-3.71-4.57-3.71s-4.57,1.48-4.57,3.79,1.61,3.87,4.53,3.87,4.61-1.69,4.61-3.95Z" fill="url(#p)"/><path d="m1136.63,296.86c0-6.26,4.32-10.83,10.7-10.83,3.05,0,4.98.74,6.42,1.69v4.12c-1.89-1.69-3.87-2.35-6.22-2.35-4.28,0-7.04,3.05-7.04,7.33s2.55,7.58,7.49,7.58c2.22,0,4.57-.86,6.01-2.1v3.71c-1.98,1.28-4.08,1.85-6.67,1.85-6.38,0-10.7-4.73-10.7-10.99Z" fill="url(#q)"/><path d="m1176.37,307.23h-4.98l-8.73-10.17v10.17h-3.79v-29.64h3.79v17.54l7.95-8.48h5.15l-9.63,9.26,10.25,11.32Z" fill="url(#r)"/><path d="m1194.77,294.72v12.52h-3.75v-2.76c-1.03,2.1-3.09,3.38-5.85,3.38-4.16,0-7.16-2.92-7.16-6.79s3.05-6.71,7.49-6.71c2.63,0,4.53,1.11,5.52,2.59v-1.81c0-3.62-2.18-5.68-5.52-5.68-2.47,0-4.65.99-6.38,2.8v-3.87c1.73-1.32,3.95-2.35,6.92-2.35,5.39,0,8.73,3.21,8.73,8.69Zm-3.75,6.13c0-2.14-1.73-3.71-4.57-3.71s-4.57,1.48-4.57,3.79,1.61,3.87,4.53,3.87,4.61-1.69,4.61-3.95Z" fill="url(#s)"/><path d="m1215.36,286.65h3.79v18.73c0,6.38-4.08,10.29-10.42,10.29-2.92,0-5.43-.66-7.33-2.39v-3.87c1.81,1.89,4.28,2.88,7.12,2.88,4.94,0,6.83-3.13,6.83-7.62v-2.63c-1.4,3.09-3.58,4.61-6.83,4.61-5.6,0-9.02-4.16-9.02-10.13s3.79-10.5,9.43-10.5c3.33,0,5.19,1.4,6.42,4.4v-3.79Zm0,9.59c0-4.12-2.47-6.83-5.97-6.83-3.71,0-6.01,2.92-6.01,7.12s2.18,6.71,5.85,6.71,6.13-2.84,6.13-7Z" fill="url(#t)"/><path d="m1242.99,297.6h-14.9c.33,4.36,3.09,6.75,7.49,6.75,2.47,0,5.06-.91,6.67-2.26v3.62c-1.56,1.24-4.24,2.14-7.12,2.14-6.63,0-11.03-4.28-11.03-11.03,0-6.22,3.62-10.79,10.09-10.79,5.27,0,8.81,3.21,8.81,8.85v2.72Zm-14.82-2.8h11.16c-.04-3.5-2.14-5.35-5.27-5.35-3.5,0-5.35,2.14-5.89,5.35Z" fill="url(#u)"/><path d="m1290.71,307.23h-4.08l-1.65-25.44-8.19,25.44h-4.73l-8.03-25.61-1.44,25.61h-3.83l1.73-28.82h6.42l7.62,24.33,7.86-24.33h6.09l2.22,28.82Z" fill="url(#v)"/><path d="m1312.04,294.72v12.52h-3.75v-2.76c-1.03,2.1-3.09,3.38-5.85,3.38-4.16,0-7.16-2.92-7.16-6.79s3.05-6.71,7.49-6.71c2.63,0,4.53,1.11,5.52,2.59v-1.81c0-3.62-2.18-5.68-5.52-5.68-2.47,0-4.65.99-6.38,2.8v-3.87c1.73-1.32,3.95-2.35,6.92-2.35,5.39,0,8.73,3.21,8.73,8.69Zm-3.75,6.13c0-2.14-1.73-3.71-4.57-3.71s-4.57,1.48-4.57,3.79,1.61,3.87,4.53,3.87,4.61-1.69,4.61-3.95Z" fill="url(#w)"/><path d="m1332.63,286.65h3.79v18.73c0,6.38-4.08,10.29-10.42,10.29-2.92,0-5.43-.66-7.33-2.39v-3.87c1.81,1.89,4.28,2.88,7.12,2.88,4.94,0,6.83-3.13,6.83-7.62v-2.63c-1.4,3.09-3.58,4.61-6.83,4.61-5.6,0-9.02-4.16-9.02-10.13s3.79-10.5,9.43-10.5c3.33,0,5.19,1.4,6.42,4.4v-3.79Zm0,9.59c0-4.12-2.47-6.83-5.97-6.83-3.71,0-6.01,2.92-6.01,7.12s2.18,6.71,5.85,6.71,6.13-2.84,6.13-7Z" fill="url(#x)"/><path d="m1342.26,280.39c0-1.36,1.11-2.39,2.51-2.39s2.47,1.03,2.47,2.39-1.07,2.47-2.47,2.47-2.51-1.11-2.51-2.47Zm.62,26.84v-20.58h3.79v20.58h-3.79Z" fill="url(#y)"/><path d="m1351.69,296.86c0-6.26,4.32-10.83,10.7-10.83,3.05,0,4.98.74,6.42,1.69v4.12c-1.89-1.69-3.87-2.35-6.22-2.35-4.28,0-7.04,3.05-7.04,7.33s2.55,7.58,7.49,7.58c2.22,0,4.57-.86,6.01-2.1v3.71c-1.98,1.28-4.08,1.85-6.67,1.85-6.38,0-10.7-4.73-10.7-10.99Z" fill="url(#z)"/><path d="m1373.64,305.05c0-1.61,1.19-2.84,2.84-2.84s2.76,1.24,2.76,2.84-1.15,2.8-2.76,2.8-2.84-1.28-2.84-2.8Zm.86-6.05v-20.58h3.79v20.58h-3.79Z" fill="url(#aa)"/></g></svg>