<?xml version="1.0" encoding="UTF-8"?><svg xmlns="http://www.w3.org/2000/svg" xmlns:xlink="http://www.w3.org/1999/xlink" viewBox="0 0 439.2 496.32"><defs><filter id="a" filterUnits="userSpaceOnUse"><feOffset dx="7" dy="7"/><feGaussianBlur result="b" stdDeviation="5"/><feFlood flood-color="#000" flood-opacity=".75"/><feComposite in2="b" operator="in"/><feComposite in="SourceGraphic"/></filter><linearGradient id="e" x1="96.1" y1="247.16" x2="342.25" y2="247.16" gradientUnits="userSpaceOnUse"><stop offset=".08" stop-color="#9945ff"/><stop offset=".3" stop-color="#8752f3"/><stop offset=".5" stop-color="#5497d5"/><stop offset=".6" stop-color="#43b4ca"/><stop offset=".72" stop-color="#28e0b9"/><stop offset=".97" stop-color="#19fb9b"/></linearGradient></defs><g id="c" filter="url(#a)"><g id="d"><path id="f" d="m317.05,196.95c.15,2.17.15,4.34.15,6.53,0,66.73-50.8,143.69-143.69,143.69v-.04c-27.44.04-54.31-7.82-77.41-22.64,3.99.48,8,.72,12.02.73,22.74.02,44.83-7.61,62.72-21.66-21.61-.41-40.56-14.5-47.18-35.07,7.57,1.46,15.37,1.16,22.8-.87-23.56-4.76-40.51-25.46-40.51-49.5v-.64c7.02,3.91,14.88,6.08,22.92,6.32-22.19-14.83-29.03-44.35-15.63-67.43,25.64,31.55,63.47,50.73,104.08,52.76-4.07-17.54,1.49-35.92,14.61-48.25,20.34-19.12,52.33-18.14,71.45,2.19,11.31-2.23,22.15-6.38,32.07-12.26-3.77,11.69-11.66,21.62-22.2,27.93,10.01-1.18,19.79-3.86,29-7.95-6.78,10.16-15.32,19.01-25.2,26.16Z" fill="url(#e)"/></g></g></svg>