<?xml version="1.0" encoding="UTF-8"?><svg id="a" xmlns="http://www.w3.org/2000/svg" xmlns:xlink="http://www.w3.org/1999/xlink" viewBox="0 0 31.39 30.87"><defs><linearGradient id="d" x1="290.19" y1="-364.56" x2="321.2" y2="-364.56" gradientTransform="translate(-290 -349.13) scale(1 -1)" gradientUnits="userSpaceOnUse"><stop offset=".08" stop-color="#9945ff"/><stop offset=".3" stop-color="#8752f3"/><stop offset=".5" stop-color="#5497d5"/><stop offset=".6" stop-color="#43b4ca"/><stop offset=".72" stop-color="#28e0b9"/><stop offset=".97" stop-color="#19fb9b"/></linearGradient></defs><g id="b"><g id="c"><path id="e" d="m28.03,9.11c.02.27.02.55.02.82,0,8.41-6.4,18.1-18.1,18.1h0c-3.46,0-6.84-.99-9.75-2.86.5.06,1.01.09,1.51.09,2.87,0,5.65-.96,7.9-2.73-2.72-.05-5.11-1.83-5.94-4.42.95.18,1.94.15,2.87-.11-2.97-.6-5.1-3.21-5.1-6.24v-.08c.88.49,1.87.77,2.89.8C1.52,10.62.66,6.9,2.35,4c3.23,3.98,8,6.39,13.11,6.65-.51-2.21.19-4.53,1.84-6.08,2.56-2.41,6.59-2.29,9,.28,1.43-.28,2.79-.8,4.04-1.54-.48,1.47-1.47,2.72-2.8,3.52,1.26-.15,2.49-.49,3.65-1-.85,1.28-1.93,2.4-3.18,3.3h0Z" fill="url(#c)"/></g></g></svg>