<?xml version="1.0" encoding="UTF-8"?><svg id="a" xmlns="http://www.w3.org/2000/svg" xmlns:xlink="http://www.w3.org/1999/xlink" viewBox="0 0 439.2 496.32"><defs><linearGradient id="b" x1="189.98" y1="248.09" x2="247.61" y2="248.09" gradientUnits="userSpaceOnUse"><stop offset=".08" stop-color="#7b5ca7"/><stop offset=".3" stop-color="#745fa9"/><stop offset=".5" stop-color="#5697d1"/><stop offset=".6" stop-color="#42b4ca"/><stop offset=".72" stop-color="#5ec3ac"/><stop offset=".97" stop-color="#70c388"/></linearGradient></defs><path d="m246.4,234.22c-.66-2.48-2.62-4.43-5.09-5.09-4.49-1.2-22.51-1.2-22.51-1.2,0,0-18.02,0-22.51,1.2-2.48.66-4.43,2.62-5.09,5.09-1.2,4.49-1.2,13.87-1.2,13.87,0,0,0,9.38,1.2,13.87.66,2.48,2.62,4.43,5.09,5.09,4.49,1.2,22.51,1.2,22.51,1.2,0,0,18.02,0,22.51-1.2,2.48-.66,4.43-2.62,5.09-5.09,1.2-4.49,1.2-13.87,1.2-13.87,0,0,0-9.38-1.2-13.87Z" fill="url(#b)"/><polygon points="213.03 256.74 228 248.09 213.03 239.45 213.03 256.74" fill="#fff"/></svg>