<?xml version="1.0" encoding="UTF-8"?><svg id="a" xmlns="http://www.w3.org/2000/svg" xmlns:xlink="http://www.w3.org/1999/xlink" viewBox="0 0 31.8 30.87"><defs><linearGradient id="c" x1="0" y1="14.36" x2="31.8" y2="14.36" gradientUnits="userSpaceOnUse"><stop offset=".08" stop-color="#7a5ba5"/><stop offset=".3" stop-color="#735ea8"/><stop offset=".5" stop-color="#5596d0"/><stop offset=".6" stop-color="#41b3c9"/><stop offset=".72" stop-color="#5dc2aa"/><stop offset=".97" stop-color="#6fc286"/></linearGradient></defs><g id="b"><path d="m31.14,6.71c-.37-1.37-1.44-2.45-2.81-2.81-2.48-.66-12.42-.66-12.42-.66,0,0-9.94,0-12.42.66-1.37.37-2.45,1.44-2.81,2.81-.66,2.48-.66,7.65-.66,7.65,0,0,0,5.17.66,7.65.37,1.37,1.44,2.45,2.81,2.81,2.48.66,12.42.66,12.42.66,0,0,9.94,0,12.42-.66,1.37-.37,2.45-1.44,2.81-2.81.66-2.48.66-7.65.66-7.65,0,0,0-5.17-.66-7.65Z" fill="url(#c)"/><polygon points="12.72 19.13 20.98 14.36 12.72 9.59 12.72 19.13" fill="#fff"/></g></svg>