<?xml version="1.0" encoding="utf-8"?>
<!-- Generator: Adobe Illustrator 27.3.1, SVG Export Plug-In . SVG Version: 6.00 Build 0)  -->
<!DOCTYPE svg PUBLIC "-//W3C//DTD SVG 1.1//EN" "http://www.w3.org/Graphics/SVG/1.1/DTD/svg11.dtd" [
	<!ENTITY ns_extend "http://ns.adobe.com/Extensibility/1.0/">
	<!ENTITY ns_ai "http://ns.adobe.com/AdobeIllustrator/10.0/">
	<!ENTITY ns_graphs "http://ns.adobe.com/Graphs/1.0/">
	<!ENTITY ns_vars "http://ns.adobe.com/Variables/1.0/">
	<!ENTITY ns_imrep "http://ns.adobe.com/ImageReplacement/1.0/">
	<!ENTITY ns_sfw "http://ns.adobe.com/SaveForWeb/1.0/">
	<!ENTITY ns_custom "http://ns.adobe.com/GenericCustomNamespace/1.0/">
	<!ENTITY ns_adobe_xpath "http://ns.adobe.com/XPath/1.0/">
]>
<svg version="1.1" id="Layer_1" xmlns:x="&ns_extend;" xmlns:i="&ns_ai;" xmlns:graph="&ns_graphs;"
	 xmlns="http://www.w3.org/2000/svg" xmlns:xlink="http://www.w3.org/1999/xlink" x="0px" y="0px" viewBox="0 0 31.4 30.9"
	 style="enable-background:new 0 0 31.4 30.9;" xml:space="preserve">
<style type="text/css">
	.st0{display:none;}
	.st1{display:inline;}
	.st2{fill:url(#SVGID_1_);}
	.st3{display:inline;fill:none;stroke:url(#SVGID_00000117638107479164213340000006055275392180270779_);stroke-width:10;}
	.st4{fill:url(#SVGID_00000078041357818175810760000011847257506663807883_);}
	.st5{fill:#FFFFFF;}
</style>
<metadata>
	<sfw  xmlns="&ns_sfw;">
		<slices></slices>
		<sliceSourceBounds  bottomLeftOrigin="true" height="496.3" width="439.2" x="-203.1" y="-232.8"></sliceSourceBounds>
	</sfw>
</metadata>
<g id="a" class="st0">
	<g id="b" class="st1">
		<g id="c">
			<g id="d">
				<g id="e">
					
						<linearGradient id="SVGID_1_" gradientUnits="userSpaceOnUse" x1="0.208" y1="16.55" x2="31.2065" y2="16.55" gradientTransform="matrix(1 0 0 -1 0 32)">
						<stop  offset="8.000000e-02" style="stop-color:#7B5CA7"/>
						<stop  offset="0.3" style="stop-color:#745FA9"/>
						<stop  offset="0.5" style="stop-color:#5697D1"/>
						<stop  offset="0.6" style="stop-color:#42B4CA"/>
						<stop  offset="0.72" style="stop-color:#5EC3AC"/>
						<stop  offset="0.97" style="stop-color:#70C388"/>
					</linearGradient>
					<path class="st2" d="M26.5,5.7c-2-0.9-4.2-1.6-6.4-2c-0.3,0.5-0.6,1.1-0.8,1.7c-2.4-0.3-4.7-0.3-7.1,0
						c-0.2-0.6-0.5-1.1-0.8-1.7C9.2,4.1,7,4.7,5,5.7c-4,6-5.1,11.8-4.6,17.6l0,0c2.4,1.8,5,3.1,7.8,3.9c0.6-0.9,1.2-1.8,1.7-2.7
						c-0.9-0.3-1.8-0.8-2.6-1.3C7.5,23,7.7,22.9,8,22.7c5,2.3,10.7,2.3,15.7,0c0.2,0.2,0.4,0.3,0.6,0.5c-0.8,0.5-1.7,0.9-2.6,1.3
						c0.5,1,1,1.9,1.7,2.7c2.8-0.9,5.5-2.2,7.8-3.9l0,0C31.7,16.6,30,10.8,26.5,5.7L26.5,5.7L26.5,5.7z M10.6,19.7
						c-1.5,0-2.8-1.4-2.8-3.1s1.2-3.1,2.8-3.1s2.8,1.4,2.8,3.1S12.1,19.7,10.6,19.7L10.6,19.7L10.6,19.7z M20.8,19.7
						c-1.5,0-2.8-1.4-2.8-3.1s1.2-3.1,2.8-3.1s2.8,1.4,2.8,3.1S22.4,19.7,20.8,19.7L20.8,19.7z"/>
				</g>
			</g>
		</g>
	</g>
</g>
<g id="Layer_2_00000118361207228293087400000000781602570675896226_" class="st0">
	
		<linearGradient id="SVGID_00000154426074786363333910000000818598408008511673_" gradientUnits="userSpaceOnUse" x1="-225.4503" y1="499.3003" x2="270.8497" y2="499.3003" gradientTransform="matrix(6.123234e-17 1 1 -6.123234e-17 -482.8003 -7.1997)">
		<stop  offset="8.000000e-02" style="stop-color:#7B5CA7"/>
		<stop  offset="0.3" style="stop-color:#745FA9"/>
		<stop  offset="0.5" style="stop-color:#5697D1"/>
		<stop  offset="0.6" style="stop-color:#42B4CA"/>
		<stop  offset="0.72" style="stop-color:#5EC3AC"/>
		<stop  offset="0.97" style="stop-color:#70C388"/>
	</linearGradient>
	
		<path style="display:inline;fill:none;stroke:url(#SVGID_00000154426074786363333910000000818598408008511673_);stroke-width:10;" d="
		M231.1,122.1V-91.1c0-10.7-5.7-20.6-15-26L31.5-223.6c-9.3-5.4-20.7-5.4-30,0L-183.1-117c-9.3,5.4-15,15.3-15,26v213.2
		c0,10.7,5.7,20.6,15,26L1.5,254.6c9.3,5.4,20.7,5.4,30,0L216.1,148C225.4,142.7,231.1,132.8,231.1,122.1z"/>
</g>
<g>
	
		<linearGradient id="SVGID_00000137843760280394634880000001818946608655294898_" gradientUnits="userSpaceOnUse" x1="-0.4383" y1="16.0937" x2="31.3628" y2="16.0937">
		<stop  offset="8.000000e-02" style="stop-color:#7A5BA5"/>
		<stop  offset="0.3" style="stop-color:#735EA8"/>
		<stop  offset="0.5" style="stop-color:#5596D0"/>
		<stop  offset="0.6" style="stop-color:#41B3C9"/>
		<stop  offset="0.72" style="stop-color:#5DC2AA"/>
		<stop  offset="0.97" style="stop-color:#6FC286"/>
	</linearGradient>
	<path style="fill:url(#SVGID_00000137843760280394634880000001818946608655294898_);" d="M30.7,8.4c-0.4-1.4-1.4-2.4-2.8-2.8
		C25.4,5,15.5,5,15.5,5S5.5,5,3,5.6C1.7,6,0.6,7.1,0.2,8.4c-0.7,2.5-0.7,7.7-0.7,7.7s0,5.2,0.7,7.7c0.4,1.4,1.4,2.4,2.8,2.8
		c2.5,0.7,12.4,0.7,12.4,0.7s9.9,0,12.4-0.7c1.4-0.4,2.4-1.4,2.8-2.8c0.7-2.5,0.7-7.7,0.7-7.7S31.4,10.9,30.7,8.4z"/>
	<polygon class="st5" points="12.3,20.9 20.5,16.1 12.3,11.3 	"/>
</g>
</svg>
