<?xml version="1.0" encoding="UTF-8"?><svg id="a" xmlns="http://www.w3.org/2000/svg" xmlns:xlink="http://www.w3.org/1999/xlink" viewBox="0 0 439.2 496.32"><defs><linearGradient id="b" x1="203" y1="248.09" x2="234.6" y2="248.09" gradientUnits="userSpaceOnUse"><stop offset=".08" stop-color="#7b5ca7"/><stop offset=".3" stop-color="#745fa9"/><stop offset=".5" stop-color="#5697d1"/><stop offset=".6" stop-color="#42b4ca"/><stop offset=".72" stop-color="#5ec3ac"/><stop offset=".97" stop-color="#70c388"/></linearGradient></defs><path d="m233.94,240.49c-.36-1.36-1.43-2.43-2.79-2.79-2.46-.66-12.35-.66-12.35-.66,0,0-9.88,0-12.35.66-1.36.36-2.43,1.43-2.79,2.79-.66,2.46-.66,7.61-.66,7.61,0,0,0,5.14.66,7.61.36,1.36,1.43,2.43,2.79,2.79,2.46.66,12.35.66,12.35.66,0,0,9.88,0,12.35-.66,1.36-.36,2.43-1.43,2.79-2.79.66-2.46.66-7.61.66-7.61,0,0,0-5.14-.66-7.61Z" fill="url(#b)"/><polygon points="215.64 252.83 223.85 248.09 215.64 243.35 215.64 252.83" fill="#fff"/></svg>