<?xml version="1.0" encoding="UTF-8"?><svg id="a" xmlns="http://www.w3.org/2000/svg" xmlns:xlink="http://www.w3.org/1999/xlink" viewBox="0 0 439.2 496.32"><defs><linearGradient id="b" x1="202.95" y1="248.09" x2="234.64" y2="248.09" gradientUnits="userSpaceOnUse"><stop offset=".08" stop-color="#7b5ca7"/><stop offset=".3" stop-color="#745fa9"/><stop offset=".5" stop-color="#5697d1"/><stop offset=".6" stop-color="#42b4ca"/><stop offset=".72" stop-color="#5ec3ac"/><stop offset=".97" stop-color="#70c388"/></linearGradient></defs><path d="m233.98,240.47c-.36-1.36-1.44-2.44-2.8-2.8-2.47-.66-12.38-.66-12.38-.66,0,0-9.91,0-12.38.66-1.36.36-2.44,1.44-2.8,2.8-.66,2.47-.66,7.63-.66,7.63,0,0,0,5.16.66,7.63.36,1.36,1.44,2.44,2.8,2.8,2.47.66,12.38.66,12.38.66,0,0,9.91,0,12.38-.66,1.36-.36,2.44-1.44,2.8-2.8.66-2.47.66-7.63.66-7.63,0,0,0-5.16-.66-7.63Z" fill="url(#b)"/><polygon points="215.63 252.85 223.86 248.09 215.63 243.34 215.63 252.85" fill="#fff"/></svg>